<?xml version="1.0" encoding="UTF-8"?>
<svg id="Layer_1" data-name="Layer 1" xmlns="http://www.w3.org/2000/svg" viewBox="0 0 73.06 57.74">
  <g>
    <path d="m44.95,30.42c.13.02.26.03.38.06.63.16,1.25.36,1.88.48,2.34.43,4.7.57,7.07.23.29-.04.56-.15.84-.24.27-.08.37-.27.37-.56-.02-1.33-.02-2.66-.02-3.99,0-4.76.01-9.51.01-14.27,0-.36-.02-.73-.04-1.09-.03-.41-.11-.51-.52-.51-1.32-.02-2.65-.03-3.97-.03-10.41,0-20.82,0-31.22,0-.63,0-.64,0-.64.64,0,4.68,0,9.35,0,14.03,0,.35,0,.7,0,1.05,0,.26-.07.49-.29.64-.4.27-.82.52-1.23.78-.02.01-.05.01-.07.02-.54.17-.68.1-.69-.45-.02-1-.01-2-.01-3,0-3.8,0-7.6,0-11.4,0-.91,0-1.82.04-2.73.06-1.15.63-1.68,1.77-1.68,7.18,0,14.35,0,21.53,0,5.24,0,10.47,0,15.71,0,.73,0,1.29.24,1.65.86.14.24.2.55.2.83.02,1.37.02,2.74.02,4.12,0,4.68.01,9.37.02,14.05,0,.51-.03,1.02,0,1.53.03.65-.29,1.1-.78,1.45-.8.56-1.7.82-2.66.93-2.01.23-3.99.01-5.95-.4-1.03-.22-2.05-.51-3.01-.96-.15-.07-.29-.18-.43-.28.01-.03.02-.06.03-.09Z" fill="#fff"/>
    <path d="m8.29,36.38c.16-.17.3-.35.47-.51,1.79-1.66,3.65-3.24,5.81-4.39,1.19-.63,2.43-1.21,3.71-1.65,1.8-.63,3.65-1.07,5.56-1.29,1.83-.21,3.66-.3,5.49-.22,1.95.08,3.87.39,5.77.83,1.94.45,3.82,1.07,5.72,1.66,2.03.63,4.07,1.27,6.14,1.79,2.09.52,4.22.8,6.37.94,1.51.1,3.02.18,4.52-.01,2.18-.28,4.32-.72,6.26-1.83.21-.12.42-.26.65-.36-.51.63-1.15,1.1-1.85,1.49-1.9,1.03-3.92,1.69-6.07,1.97-1.8.24-3.59.2-5.39.05-1.9-.16-3.79-.44-5.65-.85-2.93-.64-5.84-1.39-8.72-2.25-1.59-.48-3.2-.85-4.83-1.14-2.97-.53-5.97-.63-8.97-.31-3.1.33-6.06,1.2-8.91,2.45-1.95.85-3.76,1.95-5.46,3.22-.19.15-.38.31-.56.46-.02-.01-.04-.03-.05-.04Z" fill="#fff"/>
    <path d="m9.61,38.07c.08-.05.17-.08.25-.14,1.19-.87,2.51-1.52,3.87-2.08,2.3-.96,4.72-1.49,7.18-1.77,2.36-.27,4.73-.29,7.1-.09,3.03.26,6,.88,8.96,1.54,2.28.51,4.56,1.02,6.87,1.37,2.97.45,5.97.64,8.98.51,2.62-.11,5.15-.59,7.56-1.66.53-.24,1.02-.56,1.53-.85.05-.03.09-.05.17-.04-.15.13-.29.27-.45.4-1.36,1.1-2.88,1.9-4.55,2.42-1.8.57-3.65.91-5.53,1.09-2.64.25-5.27.08-7.9-.21-2.22-.25-4.41-.69-6.59-1.14-2.15-.44-4.29-.88-6.45-1.25-1.86-.32-3.75-.51-5.64-.58-2.58-.1-5.15.03-7.7.4-1.91.28-3.8.69-5.62,1.35-.57.21-1.11.49-1.67.73-.09.04-.18.08-.28.11-.03-.04-.07-.09-.1-.13Z" fill="#fff"/>
    <path d="m36.73,19.12c1.11,0,2.67.87,2.73,2.51.05,1.46-1.14,2.78-2.62,2.8-1.45.03-2.72-.94-2.78-2.52-.05-1.3,1.07-2.77,2.67-2.79Z" fill="#fff"/>
  </g>
  <g>
    <path d="m5.2,47.08v-6.39h1.08v5.37h2.92v1.02h-4Z" fill="#fff"/>
    <path d="m14.17,47.08h-.93v-.65c-.4.48-.94.72-1.62.72-.51,0-.93-.14-1.26-.43-.33-.29-.5-.67-.5-1.15s.18-.84.53-1.08c.35-.24.83-.36,1.44-.36h1.33v-.18c0-.65-.36-.97-1.08-.97-.45,0-.92.17-1.41.49l-.46-.64c.59-.47,1.26-.7,2.01-.7.57,0,1.04.15,1.4.43.36.29.54.75.54,1.37v3.14Zm-1.02-1.81v-.41h-1.15c-.74,0-1.11.23-1.11.69,0,.24.09.42.27.54.18.12.44.19.76.19s.61-.09.86-.27c.24-.18.37-.43.37-.74Z" fill="#fff"/>
    <path d="m18.21,42.14c.65,0,1.21.23,1.67.68.46.45.7,1.05.7,1.8s-.23,1.36-.69,1.83c-.46.47-1,.7-1.61.7s-1.16-.27-1.65-.8v2.51h-1.02v-6.64h1.02v.85c.4-.62.93-.92,1.58-.92Zm-1.6,2.51c0,.46.14.84.42,1.14.28.3.62.44,1.02.44s.75-.15,1.05-.44.45-.67.45-1.14-.15-.85-.44-1.16c-.29-.31-.64-.46-1.05-.46s-.75.15-1.03.46-.42.69-.42,1.16Z" fill="#fff"/>
    <path d="m23.01,43.04v2.47c0,.23.06.42.18.55.12.14.29.21.51.21s.43-.11.63-.32l.42.72c-.36.32-.76.48-1.19.48s-.81-.15-1.12-.45-.46-.71-.46-1.22v-2.44h-.61v-.82h.61v-1.53h1.02v1.53h1.28v.82h-1.28Z" fill="#fff"/>
    <path d="m29.6,46.43c-.49.49-1.1.73-1.83.73s-1.34-.24-1.83-.73c-.49-.48-.73-1.08-.73-1.78s.24-1.29.73-1.78c.49-.48,1.1-.73,1.83-.73s1.34.24,1.83.73c.49.48.73,1.08.73,1.78s-.24,1.29-.73,1.78Zm-2.93-.63c.29.3.66.44,1.1.44s.81-.15,1.1-.44c.29-.29.43-.68.43-1.15s-.14-.85-.43-1.15c-.29-.3-.66-.44-1.1-.44s-.81.15-1.1.44c-.29.3-.43.68-.43,1.15s.14.85.43,1.15Z" fill="#fff"/>
    <path d="m34.1,42.14c.65,0,1.21.23,1.67.68.46.45.7,1.05.7,1.8s-.23,1.36-.69,1.83c-.46.47-1,.7-1.61.7s-1.16-.27-1.65-.8v2.51h-1.02v-6.64h1.02v.85c.4-.62.93-.92,1.58-.92Zm-1.6,2.51c0,.46.14.84.42,1.14.28.3.62.44,1.02.44s.75-.15,1.05-.44.45-.67.45-1.14-.15-.85-.44-1.16c-.29-.31-.64-.46-1.05-.46s-.75.15-1.03.46-.42.69-.42,1.16Z" fill="#fff"/>
    <path d="m37.79,47.08v-6.39h1.08v2.77h3.17v-2.77h1.08v6.39h-1.08v-2.62h-3.17v2.62h-1.08Z" fill="#fff"/>
    <path d="m48.69,47.08h-.93v-.65c-.4.48-.94.72-1.62.72-.51,0-.93-.14-1.26-.43-.33-.29-.5-.67-.5-1.15s.18-.84.53-1.08c.35-.24.83-.36,1.44-.36h1.33v-.18c0-.65-.36-.97-1.08-.97-.45,0-.92.17-1.41.49l-.46-.64c.59-.47,1.26-.7,2.01-.7.57,0,1.04.15,1.4.43.36.29.54.75.54,1.37v3.14Zm-1.02-1.81v-.41h-1.15c-.74,0-1.11.23-1.11.69,0,.24.09.42.27.54.18.12.44.19.76.19s.61-.09.85-.27c.24-.18.37-.43.37-.74Z" fill="#fff"/>
    <path d="m52.66,43.18c-.51,0-.89.16-1.14.49-.26.33-.38.77-.38,1.33v2.08h-1.02v-4.87h1.02v.98c.17-.3.39-.55.67-.75.28-.19.58-.29.9-.3v1.03h-.05Z" fill="#fff"/>
    <path d="m56.35,42.14c.65,0,1.21.23,1.67.68.46.45.7,1.05.7,1.8s-.23,1.36-.69,1.83c-.46.47-1,.7-1.61.7s-1.16-.27-1.65-.8v.73h-1.02v-6.79h1.02v2.77c.4-.62.93-.92,1.58-.92Zm-1.6,2.51c0,.46.14.84.42,1.14.28.3.62.44,1.02.44s.75-.15,1.05-.44.45-.67.45-1.14-.15-.85-.44-1.16c-.29-.31-.64-.46-1.05-.46s-.75.15-1.03.46-.42.69-.42,1.16Z" fill="#fff"/>
    <path d="m63.96,46.43c-.49.49-1.1.73-1.83.73s-1.34-.24-1.83-.73c-.49-.48-.73-1.08-.73-1.78s.24-1.29.73-1.78c.49-.48,1.1-.73,1.83-.73s1.34.24,1.83.73c.49.48.73,1.08.73,1.78s-.24,1.29-.73,1.78Zm-2.93-.63c.29.3.66.44,1.1.44s.81-.15,1.1-.44c.29-.29.43-.68.43-1.15s-.14-.85-.43-1.15c-.29-.3-.66-.44-1.1-.44s-.81.15-1.1.44c-.29.3-.43.68-.43,1.15s.14.85.43,1.15Z" fill="#fff"/>
    <path d="m68.4,43.18c-.51,0-.89.16-1.14.49-.26.33-.38.77-.38,1.33v2.08h-1.02v-4.87h1.02v.98c.17-.3.39-.55.67-.75.28-.19.58-.29.9-.3v1.03h-.05Z" fill="#fff"/>
  </g>
</svg>